<?xml version="1.0" encoding="UTF-8" standalone="no"?>
<!-- Created with Inkscape (http://www.inkscape.org/) -->

<svg
   xmlns:dc="http://purl.org/dc/elements/1.1/"
   xmlns:cc="http://creativecommons.org/ns#"
   xmlns:rdf="http://www.w3.org/1999/02/22-rdf-syntax-ns#"
   xmlns:svg="http://www.w3.org/2000/svg"
   xmlns="http://www.w3.org/2000/svg"
   xmlns:sodipodi="http://sodipodi.sourceforge.net/DTD/sodipodi-0.dtd"
   xmlns:inkscape="http://www.inkscape.org/namespaces/inkscape"
   width="439.58176"
   height="487.48462"
   id="svg2"
   version="1.1"
   inkscape:version="0.48.3.1 r9886"
   sodipodi:docname="New document 1">
  <defs
     id="defs4">
    <marker
       inkscape:stockid="Arrow2Lend"
       orient="auto"
       refY="0"
       refX="0"
       id="Arrow2Lend"
       style="overflow:visible">
      <path
         id="path3822"
         style="fill-rule:evenodd;stroke-width:0.625;stroke-linejoin:round"
         d="M 8.7185878,4.0337352 -2.2072895,0.01601326 8.7185884,-4.0017078 c -1.7454984,2.3720609 -1.7354408,5.6174519 -6e-7,8.035443 z"
         transform="matrix(-1.1,0,0,-1.1,-1.1,0)"
         inkscape:connector-curvature="0" />
    </marker>
    <marker
       inkscape:stockid="Arrow1Lend"
       orient="auto"
       refY="0"
       refX="0"
       id="Arrow1Lend"
       style="overflow:visible">
      <path
         id="path3804"
         d="M 0,0 5,-5 -12.5,0 5,5 0,0 z"
         style="fill-rule:evenodd;stroke:#000000;stroke-width:1pt"
         transform="matrix(-0.8,0,0,-0.8,-10,0)"
         inkscape:connector-curvature="0" />
    </marker>
    <marker
       inkscape:stockid="Arrow1Lend"
       orient="auto"
       refY="0"
       refX="0"
       id="Arrow1Lend-6"
       style="overflow:visible">
      <path
         inkscape:connector-curvature="0"
         id="path3804-7"
         d="M 0,0 5,-5 -12.5,0 5,5 0,0 z"
         style="fill-rule:evenodd;stroke:#000000;stroke-width:1pt"
         transform="matrix(-0.8,0,0,-0.8,-10,0)" />
    </marker>
    <marker
       inkscape:stockid="Arrow1Lend"
       orient="auto"
       refY="0"
       refX="0"
       id="marker5039"
       style="overflow:visible">
      <path
         inkscape:connector-curvature="0"
         id="path5041"
         d="M 0,0 5,-5 -12.5,0 5,5 0,0 z"
         style="fill-rule:evenodd;stroke:#000000;stroke-width:1pt"
         transform="matrix(-0.8,0,0,-0.8,-10,0)" />
    </marker>
    <marker
       inkscape:stockid="Arrow1Lend"
       orient="auto"
       refY="0"
       refX="0"
       id="marker5043"
       style="overflow:visible">
      <path
         inkscape:connector-curvature="0"
         id="path5045"
         d="M 0,0 5,-5 -12.5,0 5,5 0,0 z"
         style="fill-rule:evenodd;stroke:#000000;stroke-width:1pt"
         transform="matrix(-0.8,0,0,-0.8,-10,0)" />
    </marker>
  </defs>
  <sodipodi:namedview
     id="base"
     pagecolor="#ffffff"
     bordercolor="#666666"
     borderopacity="1.0"
     inkscape:pageopacity="0.0"
     inkscape:pageshadow="2"
     inkscape:zoom="0.98994949"
     inkscape:cx="136.85052"
     inkscape:cy="337.53068"
     inkscape:document-units="px"
     inkscape:current-layer="layer1"
     showgrid="false"
     fit-margin-top="15"
     fit-margin-left="15"
     fit-margin-right="15"
     fit-margin-bottom="15"
     inkscape:window-width="1280"
     inkscape:window-height="1000"
     inkscape:window-x="0"
     inkscape:window-y="24"
     inkscape:window-maximized="1" />
  <metadata
     id="metadata7">
    <rdf:RDF>
      <cc:Work
         rdf:about="">
        <dc:format>image/svg+xml</dc:format>
        <dc:type
           rdf:resource="http://purl.org/dc/dcmitype/StillImage" />
        <dc:title></dc:title>
      </cc:Work>
    </rdf:RDF>
  </metadata>
  <g
     inkscape:label="Layer 1"
     inkscape:groupmode="layer"
     id="layer1"
     transform="translate(-34.945453,-84.933606)">
    <g
       id="g5107"
       transform="translate(-7.1428571,-70)">
      <path
         transform="translate(-107.14285,-42.857143)"
         d="m 252.85714,249.50504 c 0,19.72445 -15.98983,35.71428 -35.71429,35.71428 -19.72445,0 -35.71428,-15.98983 -35.71428,-35.71428 0,-19.72446 15.98983,-35.71429 35.71428,-35.71429 19.72446,0 35.71429,15.98983 35.71429,35.71429 z"
         sodipodi:ry="35.714287"
         sodipodi:rx="35.714287"
         sodipodi:cy="249.50504"
         sodipodi:cx="217.14285"
         id="path2985"
         style="fill:none;stroke:#000000;stroke-width:2;stroke-miterlimit:4;stroke-opacity:1;stroke-dasharray:none;stroke-dashoffset:0"
         sodipodi:type="arc" />
      <path
         d="m 252.85714,249.50504 c 0,19.72445 -15.98983,35.71428 -35.71429,35.71428 -19.72445,0 -35.71428,-15.98983 -35.71428,-35.71428 0,-19.72446 15.98983,-35.71429 35.71428,-35.71429 19.72446,0 35.71429,15.98983 35.71429,35.71429 z"
         sodipodi:ry="35.714287"
         sodipodi:rx="35.714287"
         sodipodi:cy="249.50504"
         sodipodi:cx="217.14285"
         id="path2985-4"
         style="fill:none;stroke:#000000;stroke-width:2;stroke-miterlimit:4;stroke-opacity:1;stroke-dasharray:none;stroke-dashoffset:0"
         sodipodi:type="arc"
         transform="translate(-107.14285,68.571433)" />
      <rect
         y="196.64789"
         x="257.64545"
         height="136.19313"
         width="7.5662856"
         id="rect3007"
         style="fill:#000000;fill-opacity:1;stroke:#000000;stroke-width:1.3240999;stroke-miterlimit:4;stroke-opacity:1;stroke-dasharray:none;stroke-dashoffset:0" />
      <path
         transform="translate(207.14286,11.714289)"
         d="m 252.85714,249.50504 c 0,19.72445 -15.98983,35.71428 -35.71429,35.71428 -19.72445,0 -35.71428,-15.98983 -35.71428,-35.71428 0,-19.72446 15.98983,-35.71429 35.71428,-35.71429 19.72446,0 35.71429,15.98983 35.71429,35.71429 z"
         sodipodi:ry="35.714287"
         sodipodi:rx="35.714287"
         sodipodi:cy="249.50504"
         sodipodi:cx="217.14285"
         id="path2985-42"
         style="fill:none;stroke:#000000;stroke-width:2;stroke-miterlimit:4;stroke-opacity:1;stroke-dasharray:none;stroke-dashoffset:0"
         sodipodi:type="arc" />
      <path
         sodipodi:nodetypes="cc"
         inkscape:connector-curvature="0"
         id="path3027"
         d="m 147.14286,210.93361 109.28571,48.92857"
         style="fill:none;stroke:#000000;stroke-width:1px;stroke-linecap:butt;stroke-linejoin:miter;stroke-opacity:1;marker-end:url(#Arrow1Lend)" />
      <path
         sodipodi:nodetypes="cc"
         inkscape:connector-curvature="0"
         id="path4241"
         d="M 147.14286,315.21933 256.78571,264.86218"
         style="fill:none;stroke:#000000;stroke-width:1px;stroke-linecap:butt;stroke-linejoin:miter;stroke-opacity:1;marker-end:url(#Arrow1Lend)" />
      <path
         inkscape:connector-curvature="0"
         id="path4795"
         d="m 266.07143,261.6479 121.07143,0"
         style="fill:none;stroke:#000000;stroke-width:1px;stroke-linecap:butt;stroke-linejoin:miter;stroke-opacity:1;marker-end:url(#Arrow1Lend)" />
      <text
         sodipodi:linespacing="125%"
         id="text4981"
         y="263.79074"
         x="55.714287"
         style="font-size:44px;font-style:normal;font-weight:normal;line-height:125%;letter-spacing:0px;word-spacing:0px;fill:#000000;fill-opacity:1;stroke:none;font-family:Sans"
         xml:space="preserve"><tspan
           style="font-size:14px"
           y="263.79074"
           x="55.714287"
           id="tspan4983"
           sodipodi:role="line">Milk_recognized</tspan></text>
      <text
         sodipodi:linespacing="125%"
         id="text4981-7"
         y="379.6011"
         x="70.506348"
         style="font-size:44px;font-style:normal;font-weight:normal;line-height:125%;letter-spacing:0px;word-spacing:0px;fill:#000000;fill-opacity:1;stroke:none;font-family:Sans"
         xml:space="preserve"><tspan
           style="font-size:14px"
           y="379.6011"
           x="70.506348"
           id="tspan4983-2"
           sodipodi:role="line">Need_milk</tspan></text>
      <text
         sodipodi:linespacing="125%"
         id="text4981-7-9"
         y="318.88681"
         x="390.63889"
         style="font-size:44px;font-style:normal;font-weight:normal;line-height:125%;letter-spacing:0px;word-spacing:0px;fill:#000000;fill-opacity:1;stroke:none;font-family:Sans"
         xml:space="preserve"><tspan
           style="font-size:14px"
           y="318.88681"
           x="390.63889"
           id="tspan4983-2-0"
           sodipodi:role="line">Take_milk</tspan></text>
    </g>
    <g
       id="g5122"
       transform="translate(-3.5000692,-90)">
      <path
         transform="translate(-105.11558,221.65823)"
         d="m 252.85714,249.50504 c 0,19.72445 -15.98983,35.71428 -35.71429,35.71428 -19.72445,0 -35.71428,-15.98983 -35.71428,-35.71428 0,-19.72446 15.98983,-35.71429 35.71428,-35.71429 19.72446,0 35.71429,15.98983 35.71429,35.71429 z"
         sodipodi:ry="35.714287"
         sodipodi:rx="35.714287"
         sodipodi:cy="249.50504"
         sodipodi:cx="217.14285"
         id="path2985-5"
         style="fill:none;stroke:#000000;stroke-width:2;stroke-miterlimit:4;stroke-opacity:1;stroke-dasharray:none;stroke-dashoffset:0"
         sodipodi:type="arc" />
      <path
         d="m 252.85714,249.50504 c 0,19.72445 -15.98983,35.71428 -35.71429,35.71428 -19.72445,0 -35.71428,-15.98983 -35.71428,-35.71428 0,-19.72446 15.98983,-35.71429 35.71428,-35.71429 19.72446,0 35.71429,15.98983 35.71429,35.71429 z"
         sodipodi:ry="35.714287"
         sodipodi:rx="35.714287"
         sodipodi:cy="249.50504"
         sodipodi:cx="217.14285"
         id="path2985-4-1"
         style="fill:none;stroke:#000000;stroke-width:2;stroke-miterlimit:4;stroke-opacity:1;stroke-dasharray:none;stroke-dashoffset:0"
         sodipodi:type="arc"
         transform="translate(-105.11558,333.08681)" />
      <rect
         y="461.16327"
         x="259.67273"
         height="136.19313"
         width="7.5662856"
         id="rect3007-1"
         style="fill:#000000;fill-opacity:1;stroke:#000000;stroke-width:1.3240999;stroke-miterlimit:4;stroke-opacity:1;stroke-dasharray:none;stroke-dashoffset:0" />
      <path
         transform="translate(209.17013,276.22966)"
         d="m 252.85714,249.50504 c 0,19.72445 -15.98983,35.71428 -35.71429,35.71428 -19.72445,0 -35.71428,-15.98983 -35.71428,-35.71428 0,-19.72446 15.98983,-35.71429 35.71428,-35.71429 19.72446,0 35.71429,15.98983 35.71429,35.71429 z"
         sodipodi:ry="35.714287"
         sodipodi:rx="35.714287"
         sodipodi:cy="249.50504"
         sodipodi:cx="217.14285"
         id="path2985-42-2"
         style="fill:none;stroke:#000000;stroke-width:2;stroke-miterlimit:4;stroke-opacity:1;stroke-dasharray:none;stroke-dashoffset:0"
         sodipodi:type="arc" />
      <path
         sodipodi:nodetypes="cc"
         inkscape:connector-curvature="0"
         id="path3027-5"
         d="m 149.17013,475.44899 109.28571,48.92857"
         style="fill:none;stroke:#000000;stroke-width:1px;stroke-linecap:butt;stroke-linejoin:miter;stroke-opacity:1;marker-end:url(#Arrow1Lend)" />
      <path
         sodipodi:nodetypes="cc"
         inkscape:connector-curvature="0"
         id="path4241-5"
         d="M 149.17013,579.7347 258.81298,529.37756"
         style="fill:none;stroke:#000000;stroke-width:1px;stroke-linecap:butt;stroke-linejoin:miter;stroke-opacity:1;marker-end:url(#Arrow1Lend)" />
      <path
         inkscape:connector-curvature="0"
         id="path4795-7"
         d="m 268.0987,526.16328 121.07143,0"
         style="fill:none;stroke:#000000;stroke-width:1px;stroke-linecap:butt;stroke-linejoin:miter;stroke-opacity:1;marker-end:url(#Arrow1Lend)" />
      <text
         sodipodi:linespacing="125%"
         id="text4981-2"
         y="526.87756"
         x="54.170132"
         style="font-size:44px;font-style:normal;font-weight:normal;line-height:125%;letter-spacing:0px;word-spacing:0px;fill:#000000;fill-opacity:1;stroke:none;font-family:Sans"
         xml:space="preserve"><tspan
           style="font-size:14px"
           y="526.87756"
           x="54.170132"
           id="tspan4983-7"
           sodipodi:role="line">Juice_recognized</tspan></text>
      <text
         sodipodi:linespacing="125%"
         id="text4981-7-6"
         y="644.11646"
         x="72.533623"
         style="font-size:44px;font-style:normal;font-weight:normal;line-height:125%;letter-spacing:0px;word-spacing:0px;fill:#000000;fill-opacity:1;stroke:none;font-family:Sans"
         xml:space="preserve"><tspan
           id="tspan5103"
           style="font-size:14px"
           y="644.11646"
           x="72.533623"
           sodipodi:role="line">Need_juice</tspan></text>
      <text
         sodipodi:linespacing="125%"
         id="text4981-7-9-4"
         y="583.40216"
         x="392.66617"
         style="font-size:44px;font-style:normal;font-weight:normal;line-height:125%;letter-spacing:0px;word-spacing:0px;fill:#000000;fill-opacity:1;stroke:none;font-family:Sans"
         xml:space="preserve"><tspan
           style="font-size:14px"
           y="583.40216"
           x="392.66617"
           id="tspan4983-2-0-1"
           sodipodi:role="line">Take_juice</tspan></text>
    </g>
    <path
       sodipodi:type="arc"
       style="fill:#000000;fill-opacity:1;stroke:#000000;stroke-width:2;stroke-miterlimit:4;stroke-opacity:1;stroke-dasharray:none;stroke-dashoffset:0"
       id="path5137"
       sodipodi:cx="99.285713"
       sodipodi:cy="135.93361"
       sodipodi:rx="5"
       sodipodi:ry="5"
       d="m 104.28571,135.93361 c 0,2.76142 -2.23857,5 -4.999997,5 -2.761424,0 -5,-2.23858 -5,-5 0,-2.76142 2.238576,-5 5,-5 2.761427,0 4.999997,2.23858 4.999997,5 z"
       transform="translate(3.2142857,-1.0714286)" />
    <path
       sodipodi:type="arc"
       style="fill:#000000;fill-opacity:1;stroke:#000000;stroke-width:2;stroke-miterlimit:4;stroke-opacity:1;stroke-dasharray:none;stroke-dashoffset:0"
       id="path5137-6"
       sodipodi:cx="99.285713"
       sodipodi:cy="135.93361"
       sodipodi:rx="5"
       sodipodi:ry="5"
       d="m 104.28571,135.93361 c 0,2.76142 -2.23857,5 -4.999997,5 -2.761424,0 -5,-2.23858 -5,-5 0,-2.76142 2.238576,-5 5,-5 2.761427,0 4.999997,2.23858 4.999997,5 z"
       transform="translate(2.5000012,111.78571)" />
  </g>
</svg>
